<svg xmlns="http://www.w3.org/2000/svg" width="24.569" height="13.739" viewBox="0 0 24.569 13.739">
  <path id="Icon_ionic-md-arrow-round-forward" data-name="Icon ionic-md-arrow-round-forward" d="M14.106,19.681l5.716-5.546a1.261,1.261,0,0,0,.373-.927v-.017a1.261,1.261,0,0,0-.373-.927L14.106,6.718a1.224,1.224,0,0,0-1.788,0,1.369,1.369,0,0,0,0,1.871l3.435,3.286H-3.1A1.3,1.3,0,0,0-4.375,13.2a1.288,1.288,0,0,0,1.267,1.324H15.749L12.314,17.81a1.369,1.369,0,0,0,0,1.871A1.229,1.229,0,0,0,14.106,19.681Z" transform="translate(4.375 -6.33)" fill="#fff"/>
</svg>
