<svg xmlns="http://www.w3.org/2000/svg" width="60" height="60" viewBox="0 0 60 60">
  <path id="Path_6085" data-name="Path 6085" d="M173.729,172.657H116.943v-7.143h1.786a1.071,1.071,0,1,0,0-2.143h-1.786v-7.143h1.786a1.071,1.071,0,1,0,0-2.143h-1.786v-7.143h1.786a1.071,1.071,0,1,0,0-2.143h-1.786v-7.143h1.786a1.071,1.071,0,1,0,0-2.143h-1.786v-7.143h1.786a1.071,1.071,0,1,0,0-2.143h-1.786v-7.143h1.786a1.071,1.071,0,1,0,0-2.143h-1.786v-1.071a1.071,1.071,0,0,0-2.143,0v57.857a1.071,1.071,0,0,0,1.071,1.071h57.857a1.071,1.071,0,0,0,0-2.143Zm-10.357-45a4.287,4.287,0,0,0-4.286,4.286,4.241,4.241,0,0,0,.973,2.689c-1.848,5.18-3.849,10.79-5.177,14.508a4.319,4.319,0,0,0-1.495.533l-10.057-6a4.274,4.274,0,1,0-7.582,3.074l-7.418,10.981a4.184,4.184,0,0,0-.672-.068,4.34,4.34,0,1,0,4.017,2.834l8.245-12.205a4.225,4.225,0,0,0,1.61-.7l9.7,5.788a4.286,4.286,0,1,0,7.471-2.848c1.21-3.314,3.3-9.014,5.249-14.356a4.276,4.276,0,0,0-.575-8.514Zm-35.793,36.455a2.1,2.1,0,1,1,2.1-2.1A2.105,2.105,0,0,1,127.578,164.113Zm11.407-18.094a2.1,2.1,0,1,1,2.1-2.1A2.105,2.105,0,0,1,138.985,146.018Zm16.61,9.649a2.1,2.1,0,1,1,2.1-2.1A2.105,2.105,0,0,1,155.595,155.667Zm7.8-21.588a2.1,2.1,0,1,1,2.1-2.1A2.105,2.105,0,0,1,163.393,134.079Z" transform="translate(-114.8 -114.8)" fill="#fff" fill-rule="evenodd"/>
</svg>
