<svg xmlns="http://www.w3.org/2000/svg" width="60" height="55.487" viewBox="0 0 60 55.487">
  <path id="Path_6084" data-name="Path 6084" d="M148.486,130.543l-9.434-9.434,2.09-2.091a6.672,6.672,0,0,1,9.434,9.435Zm-1.2,1.2-9.437-9.432-1.513,1.515,9.435,9.434Zm-39.11,20.988-4.306,12.995,12.995-4.307Zm10.265,7.858-9.434-9.435,26.124-26.121,4.116,4.116-18.93,18.928a.851.851,0,1,0,1.2,1.2l18.931-18.928,4.116,4.116Zm-.778-7.453,1.1-1.1h0a.851.851,0,0,0-1.2-1.2l-1.106,1.1a.851.851,0,0,0,1.2,1.2Zm39.706,17.784H99.022a.851.851,0,0,0,0,1.7h58.345a.851.851,0,0,0,0-1.7Z" transform="translate(-98.195 -117.135)" fill="#fff" fill-rule="evenodd"/>
</svg>
