<svg xmlns="http://www.w3.org/2000/svg" width="60" height="60" viewBox="0 0 60 60">
  <path id="Path_6082" data-name="Path 6082" d="M173.732,174.8H115.874a1.071,1.071,0,0,1-1.071-1.071V115.872a1.071,1.071,0,0,1,2.143,0v1.071h1.786a1.071,1.071,0,0,1,0,2.142h-1.786v7.143h1.786a1.071,1.071,0,0,1,0,2.142h-1.786v7.143h1.786a1.071,1.071,0,0,1,0,2.142h-1.786V144.8h1.786a1.071,1.071,0,0,1,0,2.143h-1.786v7.143h1.786a1.071,1.071,0,0,1,0,2.142h-1.786v7.143h1.786a1.071,1.071,0,0,1,0,2.142h-1.786v7.143h5.714V138.372a2.857,2.857,0,0,1,2.857-2.857h8.571a2.857,2.857,0,0,1,2.857,2.857v34.286H139.8V129.086a2.857,2.857,0,0,1,2.857-2.857h8.571a2.857,2.857,0,0,1,2.857,2.857v43.572h2.857v-20A2.857,2.857,0,0,1,159.8,149.8h8.571a2.857,2.857,0,0,1,2.857,2.857v20h2.5a1.071,1.071,0,0,1,0,2.143Z" transform="translate(-114.803 -114.801)" fill="#fff" fill-rule="evenodd"/>
</svg>
