<svg xmlns="http://www.w3.org/2000/svg" width="60" height="60" viewBox="0 0 60 60">
  <path id="Path_6083" data-name="Path 6083" d="M156.668,135.336h-1.333v-32h1.333a1.333,1.333,0,0,0,0-2.666H129.334V99.335a1.333,1.333,0,0,0-2.666,0v1.333H99.334a1.333,1.333,0,1,0,0,2.666h1.333v32H99.334a1.333,1.333,0,1,0,0,2.666h20.133L113.4,156.269a1.323,1.323,0,0,0,.867,1.667.848.848,0,0,0,.4.066,1.338,1.338,0,0,0,1.267-.933L122.268,138h4.4v18.667a1.333,1.333,0,1,0,2.666,0V138h4.4l6.333,19.067a1.433,1.433,0,0,0,1.267.933.848.848,0,0,0,.4-.066,1.38,1.38,0,0,0,.867-1.667L136.535,138h20.133a1.333,1.333,0,1,0,0-2.666ZM110,130a1.333,1.333,0,0,1-2.666,0v-3.333a1.333,1.333,0,1,1,2.666,0Zm6.667,0A1.333,1.333,0,0,1,114,130v-7.334a1.333,1.333,0,1,1,2.666,0Zm6.667,0a1.333,1.333,0,0,1-2.666,0v-2.666a1.333,1.333,0,0,1,2.666,0ZM130,130a1.333,1.333,0,0,1-2.666,0v-7.334a1.333,1.333,0,0,1,2.666,0Zm-7.134-9a.347.347,0,0,1-.266.133h-.066c-.067,0-.134.066-.2.066H122a.6.6,0,0,1-.333-.066H121.6a.5.5,0,0,1-.267-.133h-.066l-5.934-4.067-5.867,4.133a1.28,1.28,0,0,1-1.867-.333,1.378,1.378,0,0,1,.333-1.867L114.6,114.2c.066,0,.066-.067.133-.067a.232.232,0,0,1,.133-.066c.067,0,.067,0,.133-.067h.8c.066,0,.066,0,.133.067.066,0,.066.066.133.066s.066.067.133.067l5.8,4.067L134.536,107.6a1.323,1.323,0,1,1,1.733,2Zm13.8,9A1.333,1.333,0,0,1,134,130V115.335a1.333,1.333,0,1,1,2.666,0Zm10.667-13.333H142A1.333,1.333,0,0,1,142,114h5.333a1.333,1.333,0,0,1,0,2.666Zm0-6.667H142a1.333,1.333,0,0,1,0-2.666h5.333a1.333,1.333,0,0,1,0,2.666Z" transform="translate(-98.001 -98.002)" fill="#fff"/>
</svg>
